<svg width="11" height="17" viewBox="0 0 11 17" fill="none" xmlns="http://www.w3.org/2000/svg">
<path fill-rule="evenodd" clip-rule="evenodd" d="M0.227009 11.0434C0.298787 10.9715 0.384055 10.9144 0.477931 10.8754C0.571806 10.8365 0.672445 10.8164 0.774082 10.8164C0.875718 10.8164 0.976357 10.8365 1.07023 10.8754C1.16411 10.9144 1.24938 10.9715 1.32115 11.0434L5.41028 15.1341L9.49942 11.0434C9.64451 10.8983 9.8413 10.8168 10.0465 10.8168C10.2517 10.8168 10.4485 10.8983 10.5936 11.0434C10.7387 11.1885 10.8202 11.3853 10.8202 11.5905C10.8202 11.7957 10.7387 11.9925 10.5936 12.1376L5.95736 16.7738C5.88558 16.8457 5.80031 16.9028 5.70644 16.9418C5.61256 16.9807 5.51192 17.0008 5.41028 17.0008C5.30865 17.0008 5.20801 16.9807 5.11413 16.9418C5.02026 16.9028 4.93499 16.8457 4.86321 16.7738L0.227009 12.1376C0.15505 12.0658 0.0979588 11.9805 0.0590047 11.8866C0.0200506 11.7928 0 11.6921 0 11.5905C0 11.4889 0.0200506 11.3882 0.0590047 11.2943C0.0979588 11.2005 0.15505 11.1152 0.227009 11.0434Z" fill="#19A964"/>
<path fill-rule="evenodd" clip-rule="evenodd" d="M5.40942 0C5.61435 0 5.81089 0.0814094 5.9558 0.226319C6.10071 0.371228 6.18212 0.567768 6.18212 0.772701L6.18212 14.6813C6.18212 14.8862 6.10071 15.0828 5.9558 15.2277C5.81089 15.3726 5.61435 15.454 5.40942 15.454C5.20449 15.454 5.00795 15.3726 4.86304 15.2277C4.71813 15.0828 4.63672 14.8862 4.63672 14.6813L4.63672 0.772701C4.63672 0.567768 4.71813 0.371228 4.86304 0.226319C5.00795 0.0814094 5.20449 0 5.40942 0Z" fill="#19A964"/>
</svg>
