<svg width="23" height="16" viewBox="0 0 23 16" fill="none" xmlns="http://www.w3.org/2000/svg">
<path d="M11.5 4.70455C10.6682 4.70455 9.87044 5.03498 9.28226 5.62316C8.69407 6.21135 8.36364 7.00909 8.36364 7.84091C8.36364 8.67272 8.69407 9.47047 9.28226 10.0587C9.87044 10.6468 10.6682 10.9773 11.5 10.9773C12.3318 10.9773 13.1296 10.6468 13.7177 10.0587C14.3059 9.47047 14.6364 8.67272 14.6364 7.84091C14.6364 7.00909 14.3059 6.21135 13.7177 5.62316C13.1296 5.03498 12.3318 4.70455 11.5 4.70455ZM11.5 13.0682C10.1136 13.0682 8.78406 12.5175 7.80376 11.5371C6.82346 10.5568 6.27273 9.22727 6.27273 7.84091C6.27273 6.45455 6.82346 5.12497 7.80376 4.14467C8.78406 3.16437 10.1136 2.61364 11.5 2.61364C12.8864 2.61364 14.2159 3.16437 15.1962 4.14467C16.1765 5.12497 16.7273 6.45455 16.7273 7.84091C16.7273 9.22727 16.1765 10.5568 15.1962 11.5371C14.2159 12.5175 12.8864 13.0682 11.5 13.0682ZM11.5 0C6.27273 0 1.80864 3.25136 0 7.84091C1.80864 12.4305 6.27273 15.6818 11.5 15.6818C16.7273 15.6818 21.1914 12.4305 23 7.84091C21.1914 3.25136 16.7273 0 11.5 0Z" fill="#ADADAD"/>
</svg>
