<svg width="124" height="34" viewBox="0 0 124 34" fill="none" xmlns="http://www.w3.org/2000/svg">
<path d="M45.1865 19.4141V30.0001H46.5209V21.1932H46.5505L49.8568 30.0001H51.0578L54.364 21.1932H54.3937V30.0001H55.7281V19.4141H53.8006L50.4499 28.3099L47.114 19.4141H45.1865Z" fill="#7DC8FF"/>
<path d="M58.7837 26.1749C58.7837 25.7103 58.843 25.3001 58.9616 24.9443C59.0901 24.5786 59.2631 24.2722 59.4805 24.0251C59.698 23.778 59.95 23.5902 60.2367 23.4617C60.5332 23.3332 60.8446 23.2689 61.1707 23.2689C61.4969 23.2689 61.8033 23.3332 62.09 23.4617C62.3865 23.5902 62.6435 23.778 62.8609 24.0251C63.0784 24.2722 63.2464 24.5786 63.365 24.9443C63.4935 25.3001 63.5578 25.7103 63.5578 26.1749C63.5578 26.6394 63.4935 27.0546 63.365 27.4203C63.2464 27.7761 63.0784 28.0776 62.8609 28.3247C62.6435 28.5619 62.3865 28.7448 62.09 28.8733C61.8033 29.0018 61.4969 29.066 61.1707 29.066C60.8446 29.066 60.5332 29.0018 60.2367 28.8733C59.95 28.7448 59.698 28.5619 59.4805 28.3247C59.2631 28.0776 59.0901 27.7761 58.9616 27.4203C58.843 27.0546 58.7837 26.6394 58.7837 26.1749ZM57.4493 26.1749C57.4493 26.7383 57.5284 27.2622 57.6865 27.7465C57.8447 28.2308 58.0819 28.6558 58.3982 29.0216C58.7145 29.3774 59.1049 29.6591 59.5695 29.8667C60.0341 30.0643 60.5678 30.1632 61.1707 30.1632C61.7836 30.1632 62.3173 30.0643 62.772 29.8667C63.2365 29.6591 63.627 29.3774 63.9433 29.0216C64.2596 28.6558 64.4968 28.2308 64.6549 27.7465C64.8131 27.2622 64.8922 26.7383 64.8922 26.1749C64.8922 25.6115 64.8131 25.0876 64.6549 24.6033C64.4968 24.1091 64.2596 23.6841 63.9433 23.3282C63.627 22.9625 63.2365 22.6759 62.772 22.4683C62.3173 22.2607 61.7836 22.1569 61.1707 22.1569C60.5678 22.1569 60.0341 22.2607 59.5695 22.4683C59.1049 22.6759 58.7145 22.9625 58.3982 23.3282C58.0819 23.6841 57.8447 24.1091 57.6865 24.6033C57.5284 25.0876 57.4493 25.6115 57.4493 26.1749Z" fill="#7DC8FF"/>
<path d="M66.378 22.3349V30.0001H67.6383V25.6708C67.6383 25.3248 67.6828 25.0085 67.7717 24.7219C67.8706 24.4254 68.0139 24.1684 68.2017 23.9509C68.3895 23.7335 68.6218 23.5654 68.8985 23.4468C69.1852 23.3282 69.5212 23.2689 69.9067 23.2689C70.391 23.2689 70.7716 23.4073 71.0483 23.6841C71.3251 23.9608 71.4635 24.3364 71.4635 24.8109V30.0001H72.7237V24.9591C72.7237 24.544 72.6792 24.1684 72.5903 23.8323C72.5112 23.4864 72.3679 23.1898 72.1603 22.9427C71.9528 22.6956 71.6809 22.5029 71.3449 22.3645C71.0088 22.2261 70.5887 22.1569 70.0846 22.1569C68.9479 22.1569 68.1177 22.6215 67.5938 23.5506H67.5641V22.3349H66.378Z" fill="#7DC8FF"/>
<path d="M75.9509 20.956V19.4141H74.6907V20.956H75.9509ZM74.6907 22.3349V30.0001H75.9509V22.3349H74.6907Z" fill="#7DC8FF"/>
<path d="M79.6527 22.3349V20.0368H78.3925V22.3349H77.0878V23.4468H78.3925V28.3247C78.3925 28.6805 78.4271 28.9672 78.4963 29.1846C78.5655 29.4021 78.6693 29.5701 78.8076 29.6887C78.9559 29.8073 79.1437 29.8914 79.371 29.9408C79.6083 29.9803 79.89 30.0001 80.2161 30.0001H81.1799V28.8881H80.6016C80.4039 28.8881 80.2408 28.8832 80.1124 28.8733C79.9937 28.8535 79.8998 28.8189 79.8307 28.7695C79.7615 28.7201 79.712 28.6509 79.6824 28.5619C79.6626 28.473 79.6527 28.3544 79.6527 28.2061V23.4468H81.1799V22.3349H79.6527Z" fill="#7DC8FF"/>
<path d="M83.4991 26.1749C83.4991 25.7103 83.5584 25.3001 83.6771 24.9443C83.8055 24.5786 83.9785 24.2722 84.196 24.0251C84.4134 23.778 84.6655 23.5902 84.9521 23.4617C85.2486 23.3332 85.56 23.2689 85.8862 23.2689C86.2124 23.2689 86.5188 23.3332 86.8054 23.4617C87.1019 23.5902 87.3589 23.778 87.5764 24.0251C87.7938 24.2722 87.9619 24.5786 88.0805 24.9443C88.209 25.3001 88.2732 25.7103 88.2732 26.1749C88.2732 26.6394 88.209 27.0546 88.0805 27.4203C87.9619 27.7761 87.7938 28.0776 87.5764 28.3247C87.3589 28.5619 87.1019 28.7448 86.8054 28.8733C86.5188 29.0018 86.2124 29.066 85.8862 29.066C85.56 29.066 85.2486 29.0018 84.9521 28.8733C84.6655 28.7448 84.4134 28.5619 84.196 28.3247C83.9785 28.0776 83.8055 27.7761 83.6771 27.4203C83.5584 27.0546 83.4991 26.6394 83.4991 26.1749ZM82.1648 26.1749C82.1648 26.7383 82.2438 27.2622 82.402 27.7465C82.5601 28.2308 82.7974 28.6558 83.1136 29.0216C83.4299 29.3774 83.8204 29.6591 84.2849 29.8667C84.7495 30.0643 85.2832 30.1632 85.8862 30.1632C86.499 30.1632 87.0328 30.0643 87.4874 29.8667C87.952 29.6591 88.3424 29.3774 88.6587 29.0216C88.975 28.6558 89.2122 28.2308 89.3704 27.7465C89.5285 27.2622 89.6076 26.7383 89.6076 26.1749C89.6076 25.6115 89.5285 25.0876 89.3704 24.6033C89.2122 24.1091 88.975 23.6841 88.6587 23.3282C88.3424 22.9625 87.952 22.6759 87.4874 22.4683C87.0328 22.2607 86.499 22.1569 85.8862 22.1569C85.2832 22.1569 84.7495 22.2607 84.2849 22.4683C83.8204 22.6759 83.4299 22.9625 83.1136 23.3282C82.7974 23.6841 82.5601 24.1091 82.402 24.6033C82.2438 25.0876 82.1648 25.6115 82.1648 26.1749Z" fill="#7DC8FF"/>
<path d="M91.049 22.3349V30.0001H92.3092V26.59C92.3092 26.0958 92.3587 25.6609 92.4575 25.2853C92.5563 24.8998 92.7145 24.5736 92.9319 24.3068C93.1494 24.0399 93.436 23.8373 93.7919 23.6989C94.1477 23.5605 94.5777 23.4913 95.0818 23.4913V22.1569C94.3998 22.1372 93.8364 22.2756 93.3916 22.5721C92.9468 22.8686 92.5712 23.3282 92.2648 23.9509H92.2351V22.3349H91.049Z" fill="#7DC8FF"/>
<path d="M97.3651 20.956V19.4141H96.1049V20.956H97.3651ZM96.1049 22.3349V30.0001H97.3651V22.3349H96.1049Z" fill="#7DC8FF"/>
<path d="M99.3175 22.3349V30.0001H100.578V25.6708C100.578 25.3248 100.622 25.0085 100.711 24.7219C100.81 24.4254 100.953 24.1684 101.141 23.9509C101.329 23.7335 101.561 23.5654 101.838 23.4468C102.125 23.3282 102.461 23.2689 102.846 23.2689C103.33 23.2689 103.711 23.4073 103.988 23.6841C104.265 23.9608 104.403 24.3364 104.403 24.8109V30.0001H105.663V24.9591C105.663 24.544 105.619 24.1684 105.53 23.8323C105.451 23.4864 105.307 23.1898 105.1 22.9427C104.892 22.6956 104.62 22.5029 104.284 22.3645C103.948 22.2261 103.528 22.1569 103.024 22.1569C101.887 22.1569 101.057 22.6215 100.533 23.5506H100.504V22.3349H99.3175Z" fill="#7DC8FF"/>
<path d="M114.169 29.3477V22.3349H112.982V23.432H112.968C112.74 23.007 112.424 22.6907 112.019 22.4831C111.613 22.2657 111.169 22.1569 110.684 22.1569C110.022 22.1569 109.464 22.2854 109.009 22.5424C108.554 22.7895 108.189 23.1108 107.912 23.5061C107.635 23.8916 107.437 24.3265 107.319 24.8109C107.2 25.2853 107.141 25.7499 107.141 26.2045C107.141 26.7284 107.21 27.2276 107.348 27.702C107.497 28.1666 107.714 28.5768 108.001 28.9326C108.287 29.2785 108.643 29.5553 109.068 29.7629C109.493 29.9704 109.992 30.0742 110.566 30.0742C111.06 30.0742 111.524 29.9655 111.959 29.748C112.404 29.5207 112.735 29.1698 112.953 28.6954H112.982V29.1995C112.982 29.6245 112.938 30.0149 112.849 30.3707C112.77 30.7266 112.636 31.0281 112.449 31.2752C112.261 31.5321 112.024 31.7298 111.737 31.8682C111.45 32.0165 111.099 32.0906 110.684 32.0906C110.477 32.0906 110.259 32.0659 110.032 32.0165C109.805 31.9769 109.592 31.9078 109.394 31.8089C109.207 31.7101 109.044 31.5816 108.905 31.4234C108.777 31.2653 108.707 31.0725 108.698 30.8452H107.437C107.457 31.2603 107.566 31.6112 107.764 31.8979C107.961 32.1845 108.208 32.4168 108.505 32.5947C108.811 32.7726 109.147 32.9011 109.513 32.9802C109.889 33.0593 110.254 33.0988 110.61 33.0988C111.836 33.0988 112.735 32.7874 113.309 32.1647C113.882 31.542 114.169 30.603 114.169 29.3477ZM110.64 28.9771C110.225 28.9771 109.879 28.8931 109.602 28.725C109.325 28.5471 109.103 28.3198 108.935 28.043C108.767 27.7564 108.648 27.4401 108.579 27.0941C108.51 26.7482 108.475 26.4022 108.475 26.0563C108.475 25.6906 108.515 25.3397 108.594 25.0036C108.683 24.6675 108.816 24.371 108.994 24.114C109.182 23.857 109.419 23.6544 109.706 23.5061C109.992 23.348 110.338 23.2689 110.744 23.2689C111.139 23.2689 111.475 23.348 111.752 23.5061C112.029 23.6643 112.251 23.8768 112.419 24.1437C112.597 24.4007 112.725 24.6922 112.804 25.0184C112.884 25.3446 112.923 25.6757 112.923 26.0118C112.923 26.3676 112.879 26.7235 112.79 27.0793C112.711 27.4351 112.582 27.7564 112.404 28.043C112.226 28.3198 111.989 28.5471 111.693 28.725C111.406 28.8931 111.055 28.9771 110.64 28.9771Z" fill="#7DC8FF"/>
<path d="M52.0804 4.97224H54.3341C54.2649 4.35942 54.0968 3.81579 53.83 3.34134C53.5631 2.8669 53.2221 2.47153 52.8069 2.15523C52.4017 1.82905 51.9371 1.58195 51.4133 1.41391C50.8993 1.24588 50.3507 1.16187 49.7675 1.16187C48.957 1.16187 48.2256 1.30519 47.5732 1.59183C46.9308 1.87847 46.3871 2.27384 45.9423 2.77794C45.4975 3.28204 45.1565 3.87509 44.9193 4.5571C44.6821 5.22923 44.5635 5.96067 44.5635 6.75141C44.5635 7.52238 44.6821 8.24393 44.9193 8.91606C45.1565 9.5783 45.4975 10.1565 45.9423 10.6507C46.3871 11.145 46.9308 11.5354 47.5732 11.822C48.2256 12.0988 48.957 12.2372 49.7675 12.2372C50.4199 12.2372 51.0179 12.1383 51.5615 11.9406C52.1052 11.743 52.5796 11.4563 52.9849 11.0807C53.3901 10.7051 53.7163 10.2504 53.9634 9.71668C54.2105 9.18293 54.3637 8.58493 54.423 7.92269H52.1694C52.0804 8.63436 51.8333 9.20764 51.4281 9.64255C51.0327 10.0775 50.4792 10.2949 49.7675 10.2949C49.2437 10.2949 48.7989 10.1961 48.4332 9.99838C48.0674 9.79081 47.7709 9.519 47.5436 9.18293C47.3162 8.84687 47.1482 8.47127 47.0395 8.05613C46.9406 7.6311 46.8912 7.1962 46.8912 6.75141C46.8912 6.28685 46.9406 5.83711 47.0395 5.40221C47.1482 4.9673 47.3162 4.58181 47.5436 4.24575C47.7709 3.8998 48.0674 3.62798 48.4332 3.4303C48.7989 3.22273 49.2437 3.11895 49.7675 3.11895C50.0542 3.11895 50.326 3.16837 50.583 3.26721C50.8499 3.35617 51.0871 3.48466 51.2946 3.6527C51.5022 3.82073 51.6752 4.01841 51.8136 4.24575C51.952 4.4632 52.0409 4.70537 52.0804 4.97224Z" fill="white"/>
<path d="M60.9497 7.34446H57.5248C57.5347 7.1962 57.5644 7.02817 57.6138 6.84036C57.6731 6.65256 57.767 6.47465 57.8955 6.30662C58.0339 6.13858 58.2118 6.0002 58.4293 5.89148C58.6566 5.77287 58.9383 5.71356 59.2744 5.71356C59.7883 5.71356 60.1689 5.85194 60.416 6.1287C60.673 6.40546 60.8509 6.81071 60.9497 7.34446ZM57.5248 8.67883H63.0551C63.0946 8.08578 63.0452 7.51744 62.9068 6.9738C62.7684 6.43017 62.5411 5.94584 62.2248 5.52082C61.9184 5.0958 61.523 4.75973 61.0387 4.51262C60.5544 4.25563 59.986 4.12714 59.3337 4.12714C58.7505 4.12714 58.2167 4.23092 57.7324 4.43849C57.258 4.64606 56.8478 4.93271 56.5018 5.29842C56.1559 5.65426 55.889 6.07928 55.7012 6.57349C55.5134 7.0677 55.4195 7.60145 55.4195 8.17474C55.4195 8.76779 55.5085 9.31143 55.6864 9.80564C55.8742 10.2999 56.1361 10.7249 56.4722 11.0807C56.8082 11.4365 57.2184 11.7133 57.7028 11.911C58.1871 12.0988 58.7307 12.1927 59.3337 12.1927C60.2035 12.1927 60.9448 11.995 61.5576 11.5996C62.1704 11.2043 62.6251 10.547 62.9216 9.62772H61.0684C60.9992 9.86494 60.8114 10.0923 60.505 10.3097C60.1985 10.5173 59.8328 10.6211 59.4078 10.6211C58.8147 10.6211 58.3601 10.4679 58.0438 10.1615C57.7275 9.85506 57.5545 9.36085 57.5248 8.67883Z" fill="white"/>
<path d="M64.3037 4.33471V11.9999H66.4091V7.982C66.4091 7.20114 66.5376 6.64268 66.7946 6.30662C67.0516 5.96067 67.4667 5.78769 68.04 5.78769C68.5441 5.78769 68.895 5.94584 69.0927 6.26214C69.2903 6.56855 69.3892 7.03805 69.3892 7.67064V11.9999H71.4945V7.28516C71.4945 6.81071 71.4501 6.38075 71.3611 5.99526C71.282 5.59989 71.1387 5.26877 70.9311 5.00189C70.7236 4.72514 70.4369 4.51262 70.0712 4.36436C69.7154 4.20621 69.2558 4.12714 68.6924 4.12714C68.2476 4.12714 67.8127 4.23092 67.3876 4.43849C66.9626 4.63618 66.6167 4.95742 66.3498 5.40221H66.3053V4.33471H64.3037Z" fill="white"/>
<path d="M75.7612 4.33471V2.03662H73.6558V4.33471H72.3808V5.74321H73.6558V10.2653C73.6558 10.6507 73.7201 10.9621 73.8486 11.1993C73.9771 11.4365 74.15 11.6194 74.3675 11.7479C74.5948 11.8764 74.8518 11.9604 75.1385 11.9999C75.435 12.0494 75.7463 12.0741 76.0725 12.0741C76.2801 12.0741 76.4926 12.0691 76.7101 12.0592C76.9275 12.0494 77.1252 12.0296 77.3031 11.9999V10.369C77.2043 10.3888 77.1005 10.4036 76.9918 10.4135C76.883 10.4234 76.7694 10.4283 76.6508 10.4283C76.2949 10.4283 76.0577 10.369 75.9391 10.2504C75.8205 10.1318 75.7612 9.8946 75.7612 9.53876V5.74321H77.3031V4.33471H75.7612Z" fill="white"/>
<path d="M78.3048 4.33471V11.9999H80.4102V8.5454C80.4102 8.19945 80.4448 7.87821 80.514 7.58168C80.5831 7.28516 80.6968 7.02816 80.855 6.81071C81.023 6.58337 81.2404 6.40546 81.5073 6.27696C81.7742 6.14847 82.1004 6.08422 82.4859 6.08422C82.6143 6.08422 82.7478 6.0941 82.8862 6.11387C83.0245 6.12376 83.1432 6.13858 83.242 6.15835V4.20127C83.074 4.15185 82.9208 4.12714 82.7824 4.12714C82.5155 4.12714 82.2585 4.16668 82.0114 4.24575C81.7643 4.32482 81.532 4.43849 81.3146 4.58676C81.0971 4.72514 80.9044 4.89811 80.7363 5.10568C80.5683 5.30336 80.4349 5.52082 80.336 5.75804H80.3064V4.33471H78.3048Z" fill="white"/>
<path d="M83.9785 6.6921C84.0081 6.19789 84.1317 5.78769 84.3491 5.46151C84.5666 5.13533 84.8433 4.8734 85.1794 4.67571C85.5155 4.47803 85.8911 4.33965 86.3062 4.26058C86.7312 4.17162 87.1562 4.12714 87.5813 4.12714C87.9667 4.12714 88.3572 4.15679 88.7525 4.2161C89.1479 4.26552 89.5087 4.3693 89.8349 4.52745C90.161 4.6856 90.4279 4.90799 90.6355 5.19464C90.8431 5.4714 90.9468 5.84206 90.9468 6.30662V10.2949C90.9468 10.6409 90.9666 10.972 91.0062 11.2883C91.0457 11.6046 91.1149 11.8418 91.2137 11.9999H89.0787C89.0392 11.8813 89.0046 11.7627 88.9749 11.6441C88.9552 11.5156 88.9403 11.3871 88.9305 11.2586C88.5944 11.6046 88.199 11.8467 87.7444 11.9851C87.2897 12.1235 86.8251 12.1927 86.3507 12.1927C85.985 12.1927 85.644 12.1482 85.3277 12.0592C85.0114 11.9703 84.7346 11.8319 84.4974 11.6441C84.2602 11.4563 84.0724 11.2191 83.934 10.9324C83.8055 10.6458 83.7412 10.3048 83.7412 9.90942C83.7412 9.47452 83.8154 9.11868 83.9636 8.84192C84.1218 8.55528 84.3195 8.32794 84.5567 8.15991C84.8038 7.99188 85.0805 7.86833 85.387 7.78925C85.7033 7.70029 86.0196 7.6311 86.3358 7.58168C86.6521 7.53226 86.9635 7.49273 87.2699 7.46307C87.5763 7.43342 87.8481 7.38894 88.0854 7.32963C88.3226 7.27033 88.5104 7.18631 88.6488 7.07759C88.7871 6.95898 88.8514 6.79094 88.8415 6.57349C88.8415 6.34615 88.802 6.16824 88.7229 6.03974C88.6537 5.90136 88.5549 5.79758 88.4264 5.72839C88.3078 5.64931 88.1644 5.59989 87.9964 5.58012C87.8382 5.55047 87.6653 5.53564 87.4775 5.53564C87.0623 5.53564 86.7362 5.6246 86.4989 5.80252C86.2617 5.98043 86.1233 6.27696 86.0838 6.6921H83.9785ZM88.8415 8.24887C88.7525 8.32794 88.6389 8.39219 88.5005 8.44161C88.372 8.48115 88.2287 8.51574 88.0705 8.5454C87.9223 8.57505 87.7641 8.59976 87.5961 8.61953C87.4281 8.6393 87.26 8.66401 87.092 8.69366C86.9338 8.72331 86.7757 8.76285 86.6175 8.81227C86.4693 8.86169 86.3358 8.93088 86.2172 9.01984C86.1085 9.09891 86.0196 9.2027 85.9504 9.33119C85.8812 9.45969 85.8466 9.62278 85.8466 9.82047C85.8466 10.0083 85.8812 10.1664 85.9504 10.2949C86.0196 10.4234 86.1135 10.5272 86.2321 10.6063C86.3507 10.6755 86.4891 10.7249 86.6472 10.7545C86.8054 10.7842 86.9684 10.799 87.1365 10.799C87.5516 10.799 87.8728 10.7298 88.1002 10.5914C88.3275 10.4531 88.4956 10.29 88.6043 10.1022C88.713 9.90448 88.7773 9.7068 88.797 9.50911C88.8267 9.31143 88.8415 9.15328 88.8415 9.03467V8.24887Z" fill="white"/>
<path d="M92.6403 1.41391V11.9999H94.7456V1.41391H92.6403Z" fill="white"/>
<path d="M98.5681 3.1486V1.41391H96.4627V3.1486H98.5681ZM96.4627 4.33471V11.9999H98.5681V4.33471H96.4627Z" fill="white"/>
<path d="M99.7514 10.4135V11.9999H106.794V10.4135H102.524L106.512 5.92113V4.33471H100.048V5.92113H103.74L99.7514 10.4135Z" fill="white"/>
<path d="M113.074 7.34446H109.649C109.659 7.1962 109.688 7.02817 109.738 6.84036C109.797 6.65256 109.891 6.47465 110.019 6.30662C110.158 6.13858 110.336 6.0002 110.553 5.89148C110.781 5.77287 111.062 5.71356 111.398 5.71356C111.912 5.71356 112.293 5.85194 112.54 6.1287C112.797 6.40546 112.975 6.81071 113.074 7.34446ZM109.649 8.67883H115.179C115.219 8.08578 115.169 7.51744 115.031 6.9738C114.892 6.43017 114.665 5.94584 114.349 5.52082C114.042 5.0958 113.647 4.75973 113.163 4.51262C112.678 4.25563 112.11 4.12714 111.458 4.12714C110.874 4.12714 110.341 4.23092 109.856 4.43849C109.382 4.64606 108.972 4.93271 108.626 5.29842C108.28 5.65426 108.013 6.07928 107.825 6.57349C107.637 7.0677 107.543 7.60145 107.543 8.17474C107.543 8.76779 107.632 9.31143 107.81 9.80564C107.998 10.2999 108.26 10.7249 108.596 11.0807C108.932 11.4365 109.342 11.7133 109.827 11.911C110.311 12.0988 110.855 12.1927 111.458 12.1927C112.327 12.1927 113.069 11.995 113.682 11.5996C114.294 11.2043 114.749 10.547 115.046 9.62772H113.192C113.123 9.86494 112.935 10.0923 112.629 10.3097C112.322 10.5173 111.957 10.6211 111.532 10.6211C110.939 10.6211 110.484 10.4679 110.168 10.1615C109.851 9.85506 109.678 9.36085 109.649 8.67883Z" fill="white"/>
<path d="M121.869 8.14508C121.869 8.46138 121.839 8.76779 121.78 9.06432C121.721 9.36085 121.622 9.62772 121.483 9.86494C121.345 10.0923 121.157 10.2751 120.92 10.4135C120.693 10.5519 120.406 10.6211 120.06 10.6211C119.734 10.6211 119.452 10.5519 119.215 10.4135C118.988 10.2653 118.795 10.0775 118.637 9.85012C118.489 9.6129 118.38 9.34602 118.311 9.04949C118.241 8.75297 118.207 8.45644 118.207 8.15991C118.207 7.84362 118.237 7.54215 118.296 7.2555C118.365 6.95898 118.469 6.69704 118.607 6.46971C118.755 6.24237 118.948 6.05951 119.185 5.92113C119.423 5.78275 119.714 5.71356 120.06 5.71356C120.406 5.71356 120.693 5.78275 120.92 5.92113C121.147 6.05951 121.33 6.24237 121.469 6.46971C121.617 6.68716 121.721 6.94415 121.78 7.24068C121.839 7.52732 121.869 7.82879 121.869 8.14508ZM121.899 11.0214V11.9999H123.9V1.41391H121.795V5.26877H121.765C121.528 4.89317 121.202 4.61147 120.787 4.42367C120.381 4.22598 119.951 4.12714 119.497 4.12714C118.933 4.12714 118.439 4.24081 118.014 4.46815C117.589 4.6856 117.233 4.97718 116.947 5.3429C116.67 5.70862 116.457 6.13364 116.309 6.61797C116.171 7.09241 116.102 7.58663 116.102 8.10061C116.102 8.63436 116.171 9.14834 116.309 9.64255C116.457 10.1368 116.67 10.5766 116.947 10.9621C117.233 11.3377 117.594 11.6392 118.029 11.8665C118.464 12.084 118.968 12.1927 119.541 12.1927C120.045 12.1927 120.495 12.1037 120.89 11.9258C121.296 11.738 121.622 11.4365 121.869 11.0214H121.899Z" fill="white"/>
<path fill-rule="evenodd" clip-rule="evenodd" d="M29.9404 1.74834H3.0596C2.33541 1.74834 1.74834 2.33541 1.74834 3.0596V20.9801C1.74834 21.7043 2.33542 22.2914 3.0596 22.2914H29.9404C30.6646 22.2914 31.2517 21.7043 31.2517 20.9801V3.0596C31.2517 2.33542 30.6646 1.74834 29.9404 1.74834ZM3.0596 0C1.36983 0 0 1.36983 0 3.0596V20.9801C0 22.6699 1.36983 24.0397 3.0596 24.0397H12.457V28.6291H6.44702C5.90388 28.6291 5.46358 29.0694 5.46358 29.6126C5.46358 30.1557 5.90388 30.596 6.44702 30.596H26.7715C27.3147 30.596 27.755 30.1557 27.755 29.6126C27.755 29.0694 27.3147 28.6291 26.7715 28.6291H20.7616V24.0397H29.9404C31.6302 24.0397 33 22.6699 33 20.9801V3.0596C33 1.36983 31.6302 0 29.9404 0H3.0596ZM8.08657 10.7086H12.2389V16.8278H14.2058V6.99335H18.3581V16.8278H20.7621V8.74169H24.9144V16.8278H26.8813V18.3576H24.9144H20.7621H18.3581H14.2058H12.2389H8.08657H5.6826V16.8278H8.08657V10.7086Z" fill="white"/>
</svg>
