<svg width="100" height="97" viewBox="0 0 100 97" fill="none" xmlns="http://www.w3.org/2000/svg">
<path d="M27.8335 7.85949L20.662 0.746154C8.62588 9.84923 0.702106 23.8769 0 39.7949H10.0301C10.3853 33.4864 12.1707 27.3388 15.2531 21.8095C18.3356 16.2803 22.6357 11.5119 27.8335 7.85949ZM89.9699 39.7949H100C99.2477 23.8769 91.324 9.84923 79.338 0.746154L72.2167 7.85949C77.3922 11.5299 81.6732 16.3035 84.7453 21.8298C87.8174 27.3561 89.6027 33.4947 89.9699 39.7949ZM80.0903 42.2821C80.0903 27.0108 71.8656 14.2267 57.5226 10.8441V0H42.4774V10.8441C28.0843 14.2267 19.9097 26.961 19.9097 42.2821V67.1538L9.87964 77.1026V82.0769H90.1204V77.1026L80.0903 67.1538V42.2821ZM50 97C50.7021 97 51.3541 96.9503 52.006 96.801C55.2658 96.1046 57.9238 93.9159 59.2277 90.9313C59.7292 89.7374 59.9799 88.4441 59.9799 87.0513H39.9198C39.9699 92.5231 44.4333 97 50 97Z" fill="#D2D2D2"/>
</svg>
