<svg width="11" height="17" viewBox="0 0 11 17" fill="none" xmlns="http://www.w3.org/2000/svg">
<path fill-rule="evenodd" clip-rule="evenodd" d="M10.5933 5.95732C10.5215 6.02928 10.4363 6.08637 10.3424 6.12532C10.2485 6.16427 10.1479 6.18433 10.0462 6.18433C9.94459 6.18433 9.84396 6.16427 9.75008 6.12532C9.6562 6.08637 9.57094 6.02928 9.49916 5.95732L5.41003 1.86664L1.3209 5.95732C1.1758 6.10241 0.979016 6.18392 0.773825 6.18392C0.568633 6.18392 0.371845 6.10241 0.226752 5.95732C0.0816593 5.81222 0.000147869 5.61544 0.000147887 5.41024C0.000147905 5.20505 0.0816594 5.00826 0.226752 4.86317L4.86296 0.226969C4.93473 0.15501 5.02 0.097919 5.11388 0.0589647C5.20775 0.0200109 5.30839 -4.05362e-05 5.41003 -4.05273e-05C5.51166 -4.05184e-05 5.6123 0.020011 5.70618 0.0589648C5.80005 0.097919 5.88532 0.15501 5.9571 0.226969L10.5933 4.86317C10.6653 4.93495 10.7224 5.02022 10.7613 5.11409C10.8003 5.20797 10.8203 5.30861 10.8203 5.41024C10.8203 5.51188 10.8003 5.61252 10.7613 5.70639C10.7224 5.80027 10.6653 5.88554 10.5933 5.95732Z" fill="#EF3838"/>
<path fill-rule="evenodd" clip-rule="evenodd" d="M5.41089 17.0009C5.20596 17.0009 5.00942 16.9194 4.86451 16.7745C4.7196 16.6296 4.63819 16.4331 4.63819 16.2282L4.63819 2.31954C4.63819 2.11461 4.7196 1.91807 4.86451 1.77316C5.00942 1.62825 5.20596 1.54684 5.41089 1.54684C5.61583 1.54684 5.81237 1.62825 5.95728 1.77316C6.10219 1.91807 6.1836 2.11461 6.1836 2.31954L6.18359 16.2282C6.18359 16.4331 6.10218 16.6296 5.95727 16.7745C5.81237 16.9194 5.61583 17.0009 5.41089 17.0009Z" fill="#EF3838"/>
</svg>
