<svg width="28" height="19" viewBox="0 0 28 19" fill="none" xmlns="http://www.w3.org/2000/svg">
<path d="M17.4621 14.9256C17.4621 14.9256 12.9574 13.765 12.3215 12.5013C12.0314 11.9226 12.3165 11.1838 12.6066 10.6743C12.7395 10.4954 12.8681 10.3064 12.9926 10.1074C13.7444 8.90105 14.3179 7.31351 14.3767 5.35313C14.4651 2.40244 12.1869 0.00842222 9.48355 0C9.48194 0 9.47941 0 9.47774 0C9.47607 0 9.47435 0 9.47101 0C6.76839 0.00842222 4.49041 2.40244 4.57868 5.35313C4.63755 7.31351 5.21192 8.90105 5.96276 10.1074H5.9619H5.96276C6.08725 10.3065 6.21755 10.4954 6.34962 10.6743C6.6389 11.1838 6.92393 11.9226 6.63465 12.5013C5.99979 13.765 1.49345 14.9256 1.49345 14.9256C0.626518 15.2158 0 16.0392 0 17.0076V19H18.9555V17.0076C18.9555 16.0392 18.3307 15.2158 17.4621 14.9256Z" fill="white"/>
<path d="M26.4692 16.0375C26.4196 16.0206 23.188 15.1939 22.7273 14.2745C22.5145 13.8545 22.7239 13.3162 22.9349 12.9451C23.0308 12.8153 23.1241 12.6785 23.2149 12.5334C23.7615 11.6562 24.1794 10.5022 24.2223 9.07666C24.2871 6.9324 22.6297 5.18959 20.6612 5.18457C20.6595 5.18457 20.6586 5.18457 20.657 5.18457C20.6561 5.18457 20.6536 5.18457 20.6528 5.18457C18.685 5.18965 17.026 6.9324 17.0907 9.07666C17.1336 10.5022 17.5516 11.6562 18.0988 12.5334C18.1896 12.6785 18.2838 12.8153 18.3788 12.9451C18.3939 12.9721 18.4091 12.999 18.4234 13.026C20.0186 13.6891 21.0713 15.2531 21.0713 17.0076V19H27.5546V17.5507C27.5548 16.8456 27.0991 16.2484 26.4692 16.0375Z" fill="white"/>
</svg>
